<svg viewBox="0 0 160 96" fill="none" xmlns="http://www.w3.org/2000/svg">
<rect x="19" y="58" width="6" height="7" fill="white"/>
<rect x="30" y="45" width="3" height="3" fill="white"/>
<rect x="30" y="41" width="3" height="1" fill="white"/>
<rect x="12" y="45" width="2" height="3" fill="white"/>
<rect x="12" y="41" width="2" height="1" fill="white"/>
<path d="M12.032 25.52V53.872C12.032 57.2427 12.9067 59.7813 14.656 61.488C16.448 63.1947 18.9227 64.048 22.08 64.048C25.28 64.048 27.7547 63.1947 29.504 61.488C31.296 59.7813 32.192 57.2427 32.192 53.872V25.52H39.488V53.744C39.488 57.3707 38.6987 60.4427 37.12 62.96C35.5413 65.4773 33.4293 67.3547 30.784 68.592C28.1387 69.8293 25.216 70.448 22.016 70.448C18.816 70.448 15.8933 69.8293 13.248 68.592C10.6453 67.3547 8.576 65.4773 7.04 62.96C5.504 60.4427 4.736 57.3707 4.736 53.744V25.52H12.032ZM55.4515 64.048H71.4515V70H47.0035V64.048L63.0675 40.688H47.0035V34.736H71.4515V40.688L55.4515 64.048ZM76.6805 52.208C76.6805 48.6667 77.4058 45.5307 78.8565 42.8C80.3498 40.0693 82.3552 37.9573 84.8725 36.464C87.4325 34.928 90.2485 34.16 93.3205 34.16C96.0938 34.16 98.5045 34.7147 100.553 35.824C102.643 36.8907 104.307 38.2347 105.545 39.856V34.736H112.905V70H105.545V64.752C104.307 66.416 102.622 67.8027 100.489 68.912C98.3552 70.0213 95.9232 70.576 93.1925 70.576C90.1632 70.576 87.3898 69.808 84.8725 68.272C82.3552 66.6933 80.3498 64.5173 78.8565 61.744C77.4058 58.928 76.6805 55.7493 76.6805 52.208ZM105.545 52.336C105.545 49.904 105.033 47.792 104.009 46C103.027 44.208 101.726 42.8427 100.105 41.904C98.4832 40.9653 96.7338 40.496 94.8565 40.496C92.9792 40.496 91.2298 40.9653 89.6085 41.904C87.9872 42.8 86.6645 44.144 85.6405 45.936C84.6592 47.6853 84.1685 49.776 84.1685 52.208C84.1685 54.64 84.6592 56.7733 85.6405 58.608C86.6645 60.4427 87.9872 61.8507 89.6085 62.832C91.2725 63.7707 93.0218 64.24 94.8565 64.24C96.7338 64.24 98.4832 63.7707 100.105 62.832C101.726 61.8933 103.027 60.528 104.009 58.736C105.033 56.9013 105.545 54.768 105.545 52.336ZM140.728 34.16C143.416 34.16 145.805 34.736 147.896 35.888C150.029 37.04 151.693 38.7467 152.888 41.008C154.125 43.2693 154.744 46 154.744 49.2V70H147.512V50.288C147.512 47.1307 146.722 44.72 145.144 43.056C143.565 41.3493 141.41 40.496 138.68 40.496C135.949 40.496 133.773 41.3493 132.152 43.056C130.573 44.72 129.784 47.1307 129.784 50.288V70H122.488V22.64H129.784V38.832C131.021 37.3387 132.578 36.1867 134.456 35.376C136.376 34.5653 138.466 34.16 140.728 34.16Z" fill="white"/>
<rect x="14" y="22" width="16" height="38" rx="8" fill="white"/>
<g filter="url(#filter0_i_25_33)">
<mask id="mask0_25_33" style="mask-type:alpha" maskUnits="userSpaceOnUse" x="14" y="22" width="16" height="38">
<rect x="14" y="22" width="16" height="38" rx="8" fill="white"/>
</mask>
<g mask="url(#mask0_25_33)">
<line x1="10.3224" y1="21.6716" x2="28.8918" y2="36.8761" stroke="white"/>
<line x1="16.6576" y1="13.9343" x2="35.227" y2="29.1388" stroke="white"/>
<line x1="17.9247" y1="12.3868" x2="36.4941" y2="27.5913" stroke="white"/>
<line x1="14.1235" y1="17.0292" x2="32.6929" y2="32.2337" stroke="white"/>
<line x1="15.3905" y1="15.4818" x2="33.9599" y2="30.6863" stroke="white"/>
<line x1="11.5893" y1="20.1241" x2="30.1587" y2="35.3286" stroke="white"/>
<line x1="12.8564" y1="18.5766" x2="31.4258" y2="33.7812" stroke="white"/>
<line x1="18.6282" y1="12.3168" x2="9.12537" y2="23.9226" stroke="white"/>
<line x1="23.2705" y1="16.1179" x2="13.7677" y2="27.7238" stroke="white"/>
<line x1="21.7232" y1="14.8508" x2="12.2203" y2="26.4567" stroke="white"/>
<line x1="20.1757" y1="13.5839" x2="10.6729" y2="25.1897" stroke="white"/>
<line x1="31.0078" y1="22.4531" x2="21.505" y2="34.059" stroke="white"/>
<line x1="35.6502" y1="26.2543" x2="26.1473" y2="37.8601" stroke="white"/>
<line x1="34.1027" y1="24.9872" x2="24.5999" y2="36.593" stroke="white"/>
<line x1="32.5553" y1="23.7201" x2="23.0525" y2="35.326" stroke="white"/>
<line x1="24.818" y1="17.3849" x2="15.3152" y2="28.9908" stroke="white"/>
<line x1="29.4603" y1="21.186" x2="19.9575" y2="32.7919" stroke="white"/>
<line x1="27.913" y1="19.9191" x2="18.4102" y2="31.5249" stroke="white"/>
<line x1="26.3655" y1="18.652" x2="16.8627" y2="30.2578" stroke="white"/>
<line x1="9.8861" y1="60.0879" x2="28.4555" y2="75.2924" stroke="white"/>
<line x1="11.1532" y1="58.5404" x2="29.7226" y2="73.7449" stroke="white"/>
<line x1="17.4884" y1="50.8031" x2="36.0578" y2="66.0076" stroke="white"/>
<line x1="18.7554" y1="49.2557" x2="37.3248" y2="64.4602" stroke="white"/>
<line x1="14.9543" y1="53.898" x2="33.5237" y2="69.1026" stroke="white"/>
<line x1="16.2213" y1="52.3506" x2="34.7907" y2="67.5551" stroke="white"/>
<line x1="12.4202" y1="56.9929" x2="30.9896" y2="72.1974" stroke="white"/>
<line x1="13.6872" y1="55.4455" x2="32.2566" y2="70.65" stroke="white"/>
<line x1="19.459" y1="49.1855" x2="9.95618" y2="60.7914" stroke="white"/>
<line x1="24.1013" y1="52.9867" x2="14.5985" y2="64.5926" stroke="white"/>
<line x1="22.554" y1="51.7197" x2="13.0512" y2="63.3256" stroke="white"/>
<line x1="21.0065" y1="50.4526" x2="11.5037" y2="62.0585" stroke="white"/>
<line x1="31.8386" y1="59.3219" x2="22.3358" y2="70.9278" stroke="white"/>
<line x1="25.6488" y1="54.2538" x2="16.146" y2="65.8596" stroke="white"/>
<line x1="30.2912" y1="58.0549" x2="20.7883" y2="69.6608" stroke="white"/>
<line x1="28.7438" y1="56.7878" x2="19.241" y2="68.3937" stroke="white"/>
<line x1="27.1963" y1="55.5207" x2="17.6935" y2="67.1266" stroke="white"/>
<line x1="-1.08107" y1="35.5986" x2="17.4883" y2="50.8031" stroke="white"/>
<line x1="0.186023" y1="34.0511" x2="18.7554" y2="49.2556" stroke="white"/>
<line x1="-3.61512" y1="38.6935" x2="14.9543" y2="53.898" stroke="white"/>
<line x1="-2.34803" y1="37.1461" x2="16.2214" y2="52.3506" stroke="white"/>
<line x1="-4.88221" y1="40.2409" x2="13.6872" y2="55.4455" stroke="white"/>
<line x1="17.9116" y1="47.9186" x2="8.40882" y2="59.5244" stroke="white"/>
<line x1="16.3642" y1="46.6515" x2="6.86134" y2="58.2574" stroke="white"/>
<line x1="14.8167" y1="45.3844" x2="5.31385" y2="56.9903" stroke="white"/>
<line x1="18.7554" y1="49.2557" x2="37.3248" y2="64.4602" stroke="white"/>
<line x1="20.0224" y1="47.7082" x2="38.5919" y2="62.9127" stroke="white"/>
<line x1="26.3577" y1="39.9709" x2="44.9271" y2="55.1754" stroke="white"/>
<line x1="27.6247" y1="38.4236" x2="46.1941" y2="53.6281" stroke="white"/>
<line x1="23.8238" y1="43.066" x2="42.3896" y2="58.2749" stroke="white"/>
<line x1="25.0911" y1="41.5189" x2="43.6569" y2="56.7278" stroke="white"/>
<line x1="21.2895" y1="46.1607" x2="39.8589" y2="61.3653" stroke="white"/>
<line x1="22.5564" y1="44.6132" x2="41.1221" y2="59.8221" stroke="white"/>
<line x1="28.3284" y1="38.3534" x2="18.8256" y2="49.9593" stroke="white"/>
<line x1="32.9707" y1="42.1545" x2="23.4679" y2="53.7604" stroke="white"/>
<line x1="31.4232" y1="40.8876" x2="21.9204" y2="52.4934" stroke="white"/>
<line x1="29.8758" y1="39.6205" x2="20.3729" y2="51.2263" stroke="white"/>
<line x1="34.5181" y1="43.4216" x2="25.0153" y2="55.0275" stroke="white"/>
<line x1="39.1605" y1="47.2228" x2="29.6577" y2="58.8286" stroke="white"/>
<line x1="37.6131" y1="45.9557" x2="28.1102" y2="57.5616" stroke="white"/>
<line x1="36.0656" y1="44.6886" x2="26.5628" y2="56.2945" stroke="white"/>
<line x1="0.186023" y1="34.0511" x2="18.7554" y2="49.2556" stroke="white"/>
<line x1="1.45311" y1="32.5038" x2="20.0225" y2="47.7083" stroke="white"/>
<line x1="7.78832" y1="24.7665" x2="26.3577" y2="39.971" stroke="white"/>
<line x1="9.05529" y1="23.219" x2="27.6247" y2="38.4235" stroke="white"/>
<line x1="5.25414" y1="27.8613" x2="23.8235" y2="43.0658" stroke="white"/>
<line x1="6.52123" y1="26.3139" x2="25.0906" y2="41.5185" stroke="white"/>
<line x1="2.72008" y1="30.9563" x2="21.2895" y2="46.1608" stroke="white"/>
<line x1="3.98717" y1="29.4088" x2="22.5566" y2="44.6133" stroke="white"/>
<line x1="14.4013" y1="26.9501" x2="4.89845" y2="38.5559" stroke="white"/>
<line x1="22.1386" y1="33.2853" x2="12.6357" y2="44.8911" stroke="white"/>
<line x1="26.7809" y1="37.0864" x2="17.2781" y2="48.6923" stroke="white"/>
<line x1="25.2334" y1="35.8193" x2="15.7306" y2="47.4252" stroke="white"/>
<line x1="23.6859" y1="34.5522" x2="14.1831" y2="46.1581" stroke="white"/>
<line x1="15.9488" y1="28.217" x2="6.44593" y2="39.8229" stroke="white"/>
<line x1="20.5911" y1="32.0182" x2="11.0883" y2="43.6241" stroke="white"/>
<line x1="19.0436" y1="30.7512" x2="9.54078" y2="42.3571" stroke="white"/>
<line x1="17.4962" y1="29.4841" x2="7.99342" y2="41.09" stroke="white"/>
<line x1="27.6247" y1="38.4236" x2="46.1941" y2="53.6281" stroke="white"/>
<line x1="28.8917" y1="36.8761" x2="47.4611" y2="52.0806" stroke="white"/>
<line x1="30.1588" y1="35.3286" x2="48.7282" y2="50.5331" stroke="white"/>
<line x1="37.1977" y1="27.5212" x2="27.6948" y2="39.1271" stroke="white"/>
<line x1="38.7451" y1="28.7883" x2="29.2423" y2="40.3942" stroke="white"/>
</g>
</g>
<defs>
<filter id="filter0_i_25_33" x="14" y="22" width="16" height="42" filterUnits="userSpaceOnUse" color-interpolation-filters="sRGB">
<feFlood flood-opacity="0" result="BackgroundImageFix"/>
<feBlend mode="normal" in="SourceGraphic" in2="BackgroundImageFix" result="shape"/>
<feColorMatrix in="SourceAlpha" type="matrix" values="0 0 0 0 0 0 0 0 0 0 0 0 0 0 0 0 0 0 127 0" result="hardAlpha"/>
<feOffset dy="4"/>
<feGaussianBlur stdDeviation="2"/>
<feComposite in2="hardAlpha" operator="arithmetic" k2="-1" k3="1"/>
<feColorMatrix type="matrix" values="0 0 0 0 0 0 0 0 0 0 0 0 0 0 0 0 0 0 0.25 0"/>
<feBlend mode="normal" in2="shape" result="effect1_innerShadow_25_33"/>
</filter>
</defs>
</svg>
